<svg version="1.1" xmlns="http://www.w3.org/2000/svg" xmlns:xlink="http://www.w3.org/1999/xlink" width="438.92643" height="294.78228" viewBox="0,0,438.92643,294.78228"><g transform="translate(-20.5368,-32.60886)"><g data-paper-data="{&quot;isPaintingLayer&quot;:true}" fill-rule="nonzero" stroke-linecap="butt" stroke-linejoin="miter" stroke-miterlimit="10" stroke-dasharray="" stroke-dashoffset="0" style="mix-blend-mode: normal"><path d="M26.7868,321.14114v-282.28228h426.42643v282.28228z" fill-opacity="0.86275" fill="#c7ffca" stroke-opacity="0.86275" stroke="#327335" stroke-width="12.5"/><text transform="translate(239.99975,307) scale(0.5,0.5)" font-size="40" xml:space="preserve" fill-opacity="0.91373" fill="#3a7b3d" fill-rule="nonzero" stroke="none" stroke-width="1" stroke-linecap="butt" stroke-linejoin="miter" stroke-miterlimit="10" stroke-dasharray="" stroke-dashoffset="0" font-family="Archivo Black" font-weight="normal" text-anchor="middle" style="mix-blend-mode: normal"><tspan x="0" dy="0">click to buy, arrow keys to move</tspan></text><text transform="translate(240.00001,289.30171) scale(0.5,0.5)" font-size="40" xml:space="preserve" fill-opacity="0.91373" fill="#3a7b3d" fill-rule="nonzero" stroke="none" stroke-width="1" stroke-linecap="butt" stroke-linejoin="miter" stroke-miterlimit="10" stroke-dasharray="" stroke-dashoffset="0" font-family="Archivo Black" font-weight="normal" text-anchor="middle" style="mix-blend-mode: normal"><tspan x="0" dy="0">1000$</tspan></text><text transform="translate(339.7962,150) scale(0.5,0.5)" font-size="40" xml:space="preserve" fill-opacity="0.91373" fill="#3a7b3d" fill-rule="nonzero" stroke="none" stroke-width="1" stroke-linecap="butt" stroke-linejoin="miter" stroke-miterlimit="10" stroke-dasharray="" stroke-dashoffset="0" font-family="Archivo Black" font-weight="normal" text-anchor="middle" style="mix-blend-mode: normal"><tspan x="0" dy="0">wow! look how </tspan><tspan x="0" dy="48px">RETRO he is!</tspan><tspan x="0" dy="48px">i want to RETRO!</tspan><tspan x="0" dy="48px">SO RETRO!</tspan></text><text transform="translate(240,90.25544) scale(0.96354,0.96354)" font-size="40" xml:space="preserve" fill-opacity="0.91373" fill="#3a7b3d" fill-rule="nonzero" stroke="none" stroke-width="1" stroke-linecap="butt" stroke-linejoin="miter" stroke-miterlimit="10" stroke-dasharray="" stroke-dashoffset="0" font-family="Archivo Black" font-weight="normal" text-anchor="middle" style="mix-blend-mode: normal"><tspan x="0" dy="0">SO RETRO COW</tspan></text><path d="M66.51133,312.40693l-19.75738,-11.40693l19.75739,-11.40693z" fill-opacity="0.98824" fill="#458548" stroke="none" stroke-width="0"/><path d="M414.83714,289.59307l19.75739,11.40693l-19.75738,11.40693z" data-paper-data="{&quot;index&quot;:null}" fill-opacity="0.98824" fill="#458548" stroke="none" stroke-width="0"/><g stroke="none" stroke-width="0"><path d="M42.731,136.27239v-12.51844h22.08113v12.51844z" fill="#f9fbed"/><path d="M61.68253,131.40411v-10.77977h22.255v10.77977z" fill="#f9fbed"/><path d="M80.63406,132.96892v-8.17176h20.34247v8.17176z" fill="#f9fbed"/><path d="M68.63722,173.65385v-43.29294h72.6765v43.29294z" fill="#b4bbc1"/><path d="M139.57505,211.73077v-63.28768h16.16965v63.28768z" fill="#b4bbc1"/><path d="M144.79106,244.59168v-34.42571h10.0843v34.42571z" fill="#b4bbc1"/><path d="M160.61298,224.24921v-25.55849h12.86617v25.55849z" fill="#b4bbc1"/><path d="M166.00286,241.46207v-18.95153h7.12856v18.95153z" fill="#b4bbc1"/><path d="M153.83216,203.21128v-29.7313h22.25501v29.7313z" fill="#b4bbc1"/><path d="M167.56767,175.56639v-20.6902h8.86723v20.6902z" fill="#b4bbc1"/><path d="M174.34849,201.64647v-33.38251h6.08535v33.38251z" fill="#b4bbc1"/><path d="M178.86904,195.03952v-30.60064h5.91148v30.60064z" fill="#b4bbc1"/><path d="M183.73732,189.64963v-27.81876h5.04215v27.81876z" fill="#b4bbc1"/><path d="M187.5624,181.13014v-23.47207h4.69441v23.47207z" fill="#b4bbc1"/><path d="M191.56135,168.95943v-13.73551h5.04215v13.73551z" fill="#b4bbc1"/><path d="M43.7742,195.38725v-33.73024h18.0822v33.73024z" fill="#b4bbc1"/><path d="M42.20939,227.37882v-32.86091h12.34458v32.86091z" fill="#b4bbc1"/><path d="M42.03553,242.3314v-15.30032h9.21496v15.30032z" fill="#b4bbc1"/><path d="M42.20939,179.39147v-43.29294h34.07798v43.29294z" fill="#b4bbc1"/><path d="M115.9291,195.90885v-25.21075h26.42782v25.21075z" fill="#b4bbc1"/><path d="M63.59507,201.4726v-15.82191h21.03794v15.82191z" fill="#8a8c7e"/><path d="M63.07347,212.25237v-12.51844h18.42992v12.51844z" fill="#8a8c7e"/><path d="M84.633,201.12487v-11.47523h21.90727v11.47523z" fill="#575d37"/><path d="M89.67515,207.21022v-7.65016h46.42255v7.65016z" fill="#575d37"/><path d="M105.3232,201.99421v-9.91044h34.59958v9.91044z" fill="#575d37"/><path d="M100.28105,132.79505v-8.17176h26.77555v8.17176z" fill="#83828a"/><path d="M122.70993,126.36196v-8.5195h21.90727v8.5195z" fill="#fbfcea"/><path d="M140.79212,126.18809v-6.25922h26.42782v6.25922z" fill="#fbfcea"/><path d="M166.17673,125.49262v-6.08535h11.82297v6.08535z" fill="#e0e064"/><path d="M41.86166,248.93836v-9.38883h21.38567v9.38883z" fill="#e0e064"/><path d="M164.78579,242.3314v-2.26028h9.91044v2.26028z" fill="#e0e064"/><path d="M142.00919,246.85195v-3.99895h14.43098v3.99895z" fill="#e0e064"/><path d="M137.31477,174.87092v-47.63962h49.20443v47.63962z" fill="#c3c3c1"/><path d="M60.98706,192.60538v-21.73341h62.5922v21.73341z" fill="#c3c3c1"/><path d="M200.60244,165.13435v-10.6059h14.25712v10.6059z" fill="#1a1a18"/><path d="M194.51709,128.10063v-10.43203h18.42993v10.43203z" fill="#e7e9dc"/><path d="M199.2115,139.22814v-12.51844h11.99684v12.51844z" fill="#e7e9dc"/><path d="M202.68885,145.66122v-6.60695h7.12856v6.60695z" fill="#e7e9dc"/><path d="M201.12405,154.35458v-9.0411h12.86617v9.0411z" fill="#e7e9dc"/><path d="M185.99759,157.48419v-35.64278h17.03899v35.64278z" fill="#131315"/><path d="M176.9565,128.96997v-17.90833h11.30137v17.90833z" fill="#131315"/><path d="M214.68569,134.70759v-11.99684h25.03688v11.99684z" fill="#131315"/><path d="M208.94807,147.05216v-24.68915h6.78082v24.68915z" fill="#131315"/><path d="M193.04021,137.21897v-3.06343h3.31872v3.06343z" fill="#18171c"/><path d="M212.78235,136.28292v-2.89324h3.06343v2.89324z" fill="#18171c"/><path d="M221.84693,138.79304v-7.62424h5.17873v7.62424z" fill="#603129"/><path d="M83.02827,189.42949v-26.75676h30.06539v26.75676z" fill="#121117"/><path d="M92.52261,168.85843v-23.59198h30.20924v23.59198z" fill="#121117"/><path d="M101.00996,147.99967v-11.93984h12.51526v11.93984z" fill="#121117"/><path d="M145.02915,167.56375v-27.90759h11.65214v27.90759z" fill="#121117"/><path d="M155.67431,174.61257v-26.03749h15.68003v26.03749z" fill="#121117"/><path d="M52.09976,159.22025v-18.70096h16.68701v18.70096z" fill="#121117"/></g></g></g></svg>