<svg version="1.1" xmlns="http://www.w3.org/2000/svg" xmlns:xlink="http://www.w3.org/1999/xlink" width="637.56344" height="907.99189" viewBox="0,0,637.56344,907.99189"><g transform="translate(107.2744,238.90178)"><g data-paper-data="{&quot;isPaintingLayer&quot;:true}" fill-rule="nonzero" stroke-width="2.5" stroke-linecap="butt" stroke-linejoin="miter" stroke-miterlimit="10" stroke-dasharray="" stroke-dashoffset="0" style="mix-blend-mode: normal"><path d="M-47.53754,383.99967v-414.41441h576.57658v414.41441z" fill="#7d5a55" stroke="#000000"/><g fill="#a7725f" stroke="#66302f"><g><g><path d="M226.53807,213.5v-67h30.33333v67z"/><path d="M259.75315,248.41981v-67h30.33333v67z"/><path d="M259.75315,178.58019v-67h30.33333v67z"/></g><g><path d="M193.34812,318.2958v-67h30.33333v67z"/><path d="M226.56319,353.21562v-67h30.33333v67z"/><path d="M226.56319,283.37599v-67h30.33333v67z"/></g></g><g><g><path d="M193.29892,108.69175v-67h30.33333v67z"/><path d="M226.51399,143.61157v-67h30.33333v67z"/><path d="M226.51399,73.77194v-67h30.33333v67z"/></g><g><path d="M160.10896,213.48756v-67h30.33333v67z"/><path d="M193.32404,248.40737v-67h30.33333v67z"/><path d="M193.32404,178.56774v-67h30.33333v67z"/></g></g></g><g fill="#a7725f" stroke="#66302f"><g><g><path d="M326.16389,318.23318v-67h30.33333v67z"/><path d="M359.37896,353.153v-67h30.33333v67z"/><path d="M359.37896,283.31337v-67h30.33333v67z"/></g><g><path d="M292.97393,423.02899v-67h30.33333v67z"/><path d="M326.18901,457.9488v-67h30.33333v67z"/><path d="M326.18901,388.10917v-67h30.33333v67z"/></g></g><g><g><path d="M292.92473,213.42493v-67h30.33333v67z"/><path d="M326.1398,248.34475v-67h30.33333v67z"/><path d="M326.1398,178.50512v-67h30.33333v67z"/></g><g><path d="M259.73477,318.22074v-67h30.33333v67z"/><path d="M292.94985,353.14055v-67h30.33333v67z"/><path d="M292.94985,283.30092v-67h30.33333v67z"/></g></g></g><g fill="#a7725f" stroke="#66302f"><g><g><path d="M425.82395,213.45148v-67h30.33333v67z"/><path d="M459.03903,248.37129v-67h30.33333v67z"/><path d="M459.03903,178.53166v-67h30.33333v67z"/></g><g><path d="M392.634,318.24728v-67h30.33333v67z"/><path d="M425.84907,353.1671v-67h30.33333v67z"/><path d="M425.84907,283.32747v-67h30.33333v67z"/></g></g><g><g><path d="M392.58479,108.64323v-67h30.33333v67z"/><path d="M425.79987,143.56304v-67h30.33333v67z"/><path d="M425.79987,73.72341v-67h30.33333v67z"/></g><g><path d="M359.39484,213.43903v-67h30.33333v67z"/><path d="M392.60991,248.35885v-67h30.33333v67z"/><path d="M392.60991,178.51922v-67h30.33333v67z"/></g></g></g><g fill="#a7725f" stroke="#66302f"><g><g><path d="M292.91723,3.81734v-67h30.33333v67z"/><path d="M326.13231,38.73716v-67h30.33333v67z"/><path d="M326.13231,-31.10247v-67h30.33333v67z"/></g><g><path d="M259.72728,108.61315v-67h30.33333v67z"/><path d="M292.94235,143.53296v-67h30.33333v67z"/><path d="M292.94235,73.69333v-67h30.33333v67z"/></g></g><g><g><path d="M259.67807,-100.99091v-67h30.33333v67z"/><path d="M292.89315,-66.07109v-67h30.33333v67z"/><path d="M292.89315,-135.91072v-67h30.33333v67z"/></g><g><path d="M226.48812,3.8049v-67h30.33333v67z"/><path d="M259.70319,38.72471v-67h30.33333v67z"/><path d="M259.70319,-31.11492v-67h30.33333v67z"/></g></g></g><g fill="#a7725f" stroke="#66302f"><g><path d="M359.33065,3.87075v-67h30.33333v67z"/><path d="M392.54572,38.79056v-67h30.33333v67z"/><path d="M392.54572,-31.04907v-67h30.33333v67z"/></g><g><path d="M326.14069,108.66655v-67h30.33333v67z"/><path d="M359.35577,143.58637v-67h30.33333v67z"/><path d="M359.35577,73.74674v-67h30.33333v67z"/></g></g><g fill="#a7725f" stroke="#66302f"><g><path d="M326.09149,-100.9375v-67h30.33333v67z"/><path d="M359.30656,-66.01769v-67h30.33333v67z"/><path d="M359.30656,-135.85732v-67h30.33333v67z"/></g><g><path d="M292.90153,3.8583v-67h30.33333v67z"/><path d="M326.11661,38.77812v-67h30.33333v67z"/><path d="M326.11661,-31.06151v-67h30.33333v67z"/></g></g><g fill="#a7725f" stroke="#66302f"><g><g><path d="M126.91609,318.23318v-67h30.33333v67z"/><path d="M160.13116,353.153v-67h30.33333v67z"/><path d="M160.13116,283.31337v-67h30.33333v67z"/></g><g><path d="M93.72613,423.02899v-67h30.33333v67z"/><path d="M126.94121,457.9488v-67h30.33333v67z"/><path d="M126.94121,388.10917v-67h30.33333v67z"/></g></g><g><g><path d="M93.67693,213.42493v-67h30.33333v67z"/><path d="M126.892,248.34475v-67h30.33333v67z"/><path d="M126.892,178.50512v-67h30.33333v67z"/></g><g><path d="M60.48697,318.22074v-67h30.33333v67z"/><path d="M93.70205,353.14055v-67h30.33333v67z"/><path d="M93.70205,283.30092v-67h30.33333v67z"/></g></g></g><g fill="#a7725f" stroke="#66302f"><g><g><path d="M60.37975,108.57866v-67h30.33333v67z"/><path d="M93.59483,143.49847v-67h30.33333v67z"/><path d="M93.59483,73.65884v-67h30.33333v67z"/></g><g><path d="M27.1898,213.37446v-67h30.33333v67z"/><path d="M60.40487,248.29428v-67h30.33333v67z"/><path d="M60.40487,178.45465v-67h30.33333v67z"/></g></g><g><g><path d="M27.14059,3.77041v-67h30.33333v67z"/><path d="M60.35567,38.69022v-67h30.33333v67z"/><path d="M60.35567,-31.14941v-67h30.33333v67z"/></g><g><path d="M-6.04936,108.56621v-67h30.33333v67z"/><path d="M27.16571,143.48603v-67h30.33333v67z"/><path d="M27.16571,73.6464v-67h30.33333v67z"/></g></g></g><g fill="#a7725f" stroke="#66302f"><g><g><path d="M159.8331,3.81734v-67h30.33333v67z"/><path d="M193.04817,38.73716v-67h30.33333v67z"/><path d="M193.04817,-31.10247v-67h30.33333v67z"/></g><g><path d="M126.64314,108.61315v-67h30.33333v67z"/><path d="M159.85822,143.53296v-67h30.33333v67z"/><path d="M159.85822,73.69333v-67h30.33333v67z"/></g></g><g><g><path d="M126.59394,-100.99091v-67h30.33333v67z"/><path d="M159.80901,-66.07109v-67h30.33333v67z"/><path d="M159.80901,-135.91072v-67h30.33333v67z"/></g><g><path d="M93.40398,3.8049v-67h30.33333v67z"/><path d="M126.61906,38.72471v-67h30.33333v67z"/><path d="M126.61906,-31.11492v-67h30.33333v67z"/></g></g></g><g fill="#a7725f" stroke="#66302f"><g><g><path d="M-6.27632,318.23318v-67h30.33333v67z"/><path d="M26.93875,353.153v-67h30.33333v67z"/><path d="M26.93875,283.31337v-67h30.33333v67z"/></g><g><path d="M-39.46628,423.02899v-67h30.33333v67z"/><path d="M-6.2512,457.9488v-67h30.33333v67z"/><path d="M-6.2512,388.10917v-67h30.33333v67z"/></g></g><g><g><path d="M-39.51548,213.42493v-67h30.33333v67z"/><path d="M-6.30041,248.34475v-67h30.33333v67z"/><path d="M-6.30041,178.50512v-67h30.33333v67z"/></g><g><path d="M-72.70544,318.22074v-67h30.33333v67z"/><path d="M-39.49036,353.14055v-67h30.33333v67z"/><path d="M-39.49036,283.30092v-67h30.33333v67z"/></g></g></g><g fill="#a7725f" stroke="#66302f"><g><g><path d="M60.37976,528.12449v-67h30.33333v67z"/><path d="M93.59483,563.04431v-67h30.33333v67z"/><path d="M93.59483,493.20468v-67h30.33333v67z"/></g><g><path d="M27.1898,632.9203v-67h30.33333v67z"/><path d="M60.40488,667.84011v-67h30.33333v67z"/><path d="M60.40488,598.00048v-67h30.33333v67z"/></g></g><g><g><path d="M27.1406,423.31624v-67h30.33333v67z"/><path d="M60.35567,458.23606v-67h30.33333v67z"/><path d="M60.35567,388.39643v-67h30.33333v67z"/></g><g><path d="M-6.04936,528.11205v-67h30.33333v67z"/><path d="M27.16572,563.03186v-67h30.33333v67z"/><path d="M27.16572,493.19223v-67h30.33333v67z"/></g></g></g><g fill="#a7725f" stroke="#66302f"><g><g><path d="M193.3203,528.12449v-67h30.33333v67z"/><path d="M226.53537,563.04431v-67h30.33333v67z"/><path d="M226.53537,493.20468v-67h30.33333v67z"/></g><g><path d="M160.13034,632.9203v-67h30.33333v67z"/><path d="M193.34542,667.84011v-67h30.33333v67z"/><path d="M193.34542,598.00048v-67h30.33333v67z"/></g></g><g><g><path d="M160.08114,423.31624v-67h30.33333v67z"/><path d="M193.29621,458.23606v-67h30.33333v67z"/><path d="M193.29621,388.39643v-67h30.33333v67z"/></g><g><path d="M126.89118,528.11205v-67h30.33333v67z"/><path d="M160.10626,563.03186v-67h30.33333v67z"/><path d="M160.10626,493.19223v-67h30.33333v67z"/></g></g></g><g fill="#a7725f" stroke="#66302f"><g><g><path d="M259.77618,528.12449v-67h30.33333v67z"/><path d="M292.99125,563.04431v-67h30.33333v67z"/><path d="M292.99125,493.20468v-67h30.33333v67z"/></g><g><path d="M226.58622,632.9203v-67h30.33333v67z"/><path d="M259.8013,667.84011v-67h30.33333v67z"/><path d="M259.8013,598.00048v-67h30.33333v67z"/></g></g><g><g><path d="M226.53702,423.31624v-67h30.33333v67z"/><path d="M259.75209,458.23606v-67h30.33333v67z"/><path d="M259.75209,388.39643v-67h30.33333v67z"/></g><g><path d="M193.34706,528.11205v-67h30.33333v67z"/><path d="M226.56214,563.03186v-67h30.33333v67z"/><path d="M226.56214,493.19223v-67h30.33333v67z"/></g></g></g><g fill="#a7725f" stroke="#66302f"><g><g><path d="M-39.59528,3.85683v-67h30.33333v67z"/><path d="M-6.38021,38.77665v-67h30.33333v67z"/><path d="M-6.38021,-31.06298v-67h30.33333v67z"/></g><g><path d="M-72.78524,108.65264v-67h30.33333v67z"/><path d="M-39.57016,143.57244v-67h30.33333v67z"/><path d="M-39.57016,73.73282v-67h30.33333v67z"/></g></g><g><g><path d="M-72.83444,-100.95142v-67h30.33333v67z"/><path d="M-39.61937,-66.0316v-67h30.33333v67z"/><path d="M-39.61937,-135.87124v-67h30.33333v67z"/></g><g><path d="M-106.0244,3.84439v-67h30.33333v67z"/><path d="M-72.80932,38.7642v-67h30.33333v67z"/><path d="M-72.80932,-31.07543v-67h30.33333v67z"/></g></g></g><g fill="#a7725f" stroke="#66302f"><g><g><path d="M392.72761,528.12449v-67h30.33333v67z"/><path d="M425.94268,563.04431v-67h30.33333v67z"/><path d="M425.94268,493.20468v-67h30.33333v67z"/></g><g><path d="M359.53765,632.9203v-67h30.33333v67z"/><path d="M392.75273,667.84011v-67h30.33333v67z"/><path d="M392.75273,598.00048v-67h30.33333v67z"/></g></g><g><g><path d="M359.48845,423.31624v-67h30.33333v67z"/><path d="M392.70352,458.23606v-67h30.33333v67z"/><path d="M392.70352,388.39643v-67h30.33333v67z"/></g><g><path d="M326.29849,528.11205v-67h30.33333v67z"/><path d="M359.51357,563.03186v-67h30.33333v67z"/><path d="M359.51357,493.19223v-67h30.33333v67z"/></g></g></g><g fill="#a7725f" stroke="#66302f"><g><g><path d="M459.04455,-30.92372v-67h30.33333v67z"/><path d="M492.25962,3.9961v-67h30.33333v67z"/><path d="M492.25962,-65.84353v-67h30.33333v67z"/></g><g><path d="M425.85459,73.87209v-67h30.33333v67z"/><path d="M459.06967,108.7919v-67h30.33333v67z"/><path d="M459.06967,38.95227v-67h30.33333v67z"/></g></g><g><g><path d="M425.80539,-135.73197v-67h30.33333v67z"/><path d="M459.02046,-100.81215v-67h30.33333v67z"/><path d="M459.02046,-170.65178v-67h30.33333v67z"/></g><g><path d="M392.61543,-30.93616v-67h30.33333v67z"/><path d="M425.83051,3.98365v-67h30.33333v67z"/><path d="M425.83051,-65.85598v-67h30.33333v67z"/></g></g></g><g fill="#a7725f" stroke="#66302f"><g><g><path d="M459.04455,458.09016v-67h30.33333v67z"/><path d="M492.25962,493.00998v-67h30.33333v67z"/><path d="M492.25962,423.17035v-67h30.33333v67z"/></g><g><path d="M425.85459,562.88597v-67h30.33333v67z"/><path d="M459.06967,597.80578v-67h30.33333v67z"/><path d="M459.06967,527.96615v-67h30.33333v67z"/></g></g><g><g><path d="M425.80539,353.28191v-67h30.33333v67z"/><path d="M459.02046,388.20173v-67h30.33333v67z"/><path d="M459.02046,318.3621v-67h30.33333v67z"/></g><g><path d="M392.61543,458.07772v-67h30.33333v67z"/><path d="M425.83051,492.99753v-67h30.33333v67z"/><path d="M425.83051,423.1579v-67h30.33333v67z"/></g></g></g></g></g></svg>