<svg version="1.1" xmlns="http://www.w3.org/2000/svg" xmlns:xlink="http://www.w3.org/1999/xlink" width="197.86091" height="137.87672" viewBox="0,0,197.86091,137.87672"><g transform="translate(-152.47023,-100.33377)"><g data-paper-data="{&quot;isPaintingLayer&quot;:true}" fill-rule="nonzero" stroke="none" stroke-width="0" stroke-linecap="butt" stroke-linejoin="miter" stroke-miterlimit="10" stroke-dasharray="" stroke-dashoffset="0" style="mix-blend-mode: normal"><path d="M153.33957,125.54452v-12.51844h22.08113v12.51844z" fill="#f9fbed"/><path d="M172.2911,120.67624v-10.77977h22.255v10.77977z" fill="#f9fbed"/><path d="M191.24263,122.24105v-8.17176h20.34247v8.17176z" fill="#f9fbed"/><path d="M179.24579,162.92598v-43.29294h72.6765v43.29294z" fill="#b4bbc1"/><path d="M250.18362,201.0029v-63.28768h16.16965v63.28768z" fill="#b4bbc1"/><path d="M255.39963,233.86381v-34.42571h10.0843v34.42571z" fill="#b4bbc1"/><path d="M271.22155,213.52134v-25.55849h12.86617v25.55849z" fill="#b4bbc1"/><path d="M276.61143,230.7342v-18.95153h7.12856v18.95153z" fill="#b4bbc1"/><path d="M264.44073,192.48341v-29.7313h22.25501v29.7313z" fill="#b4bbc1"/><path d="M278.17624,164.83852v-20.6902h8.86723v20.6902z" fill="#b4bbc1"/><path d="M284.95706,190.9186v-33.38251h6.08535v33.38251z" fill="#b4bbc1"/><path d="M289.47761,184.31165v-30.60064h5.91148v30.60064z" fill="#b4bbc1"/><path d="M294.34589,178.92176v-27.81876h5.04215v27.81876z" fill="#b4bbc1"/><path d="M298.17097,170.40227v-23.47207h4.69441v23.47207z" fill="#b4bbc1"/><path d="M302.16992,158.23156v-13.73551h5.04215v13.73551z" fill="#b4bbc1"/><path d="M154.38277,184.65938v-33.73024h18.0822v33.73024z" fill="#b4bbc1"/><path d="M152.81796,216.65095v-32.86091h12.34458v32.86091z" fill="#b4bbc1"/><path d="M152.6441,231.60353v-15.30032h9.21496v15.30032z" fill="#b4bbc1"/><path d="M152.81796,168.6636v-43.29294h34.07798v43.29294z" fill="#b4bbc1"/><path d="M226.53767,185.18098v-25.21075h26.42782v25.21075z" fill="#b4bbc1"/><path d="M174.20364,190.74473v-15.82191h21.03794v15.82191z" fill="#8a8c7e"/><path d="M173.68204,201.5245v-12.51844h18.42992v12.51844z" fill="#8a8c7e"/><path d="M195.24157,190.397v-11.47523h21.90727v11.47523z" fill="#575d37"/><path d="M200.28372,196.48235v-7.65016h46.42255v7.65016z" fill="#575d37"/><path d="M215.93177,191.26634v-9.91044h34.59958v9.91044z" fill="#575d37"/><path d="M210.88962,122.06718v-8.17176h26.77555v8.17176z" fill="#83828a"/><path d="M233.3185,115.63409v-8.5195h21.90727v8.5195z" fill="#fbfcea"/><path d="M251.40069,115.46022v-6.25922h26.42782v6.25922z" fill="#fbfcea"/><path d="M276.7853,114.76475v-6.08535h11.82297v6.08535z" fill="#e0e064"/><path d="M152.47023,238.21049v-9.38883h21.38567v9.38883z" fill="#e0e064"/><path d="M275.39436,231.60353v-2.26028h9.91044v2.26028z" fill="#e0e064"/><path d="M252.61776,236.12408v-3.99895h14.43098v3.99895z" fill="#e0e064"/><path d="M247.92334,164.14305v-47.63962h49.20443v47.63962z" fill="#c3c3c1"/><path d="M171.59563,181.87751v-21.73341h62.5922v21.73341z" fill="#c3c3c1"/><path d="M311.21101,154.40648v-10.6059h14.25712v10.6059z" fill="#1a1a18"/><path d="M305.12566,117.37276v-10.43203h18.42993v10.43203z" fill="#e7e9dc"/><path d="M309.82007,128.50027v-12.51844h11.99684v12.51844z" fill="#e7e9dc"/><path d="M313.29742,134.93335v-6.60695h7.12856v6.60695z" fill="#e7e9dc"/><path d="M311.73262,143.62671v-9.0411h12.86617v9.0411z" fill="#e7e9dc"/><path d="M296.60616,146.75632v-35.64278h17.03899v35.64278z" fill="#131315"/><path d="M287.56507,118.2421v-17.90833h11.30137v17.90833z" fill="#131315"/><path d="M325.29426,123.97972v-11.99684h25.03688v11.99684z" fill="#131315"/><path d="M319.55664,136.32429v-24.68915h6.78082v24.68915z" fill="#131315"/><path d="M303.64878,126.4911v-3.06343h3.31872v3.06343z" fill="#b4bbc1"/><path d="M323.39092,125.55505v-2.89324h3.06343v2.89324z" fill="#b4bbc1"/><path d="M332.4555,128.06517v-7.62424h5.17873v7.62424z" fill="#603129"/><path d="M193.63684,178.70162v-26.75676h30.06539v26.75676z" fill="#121117"/><path d="M203.13118,158.13056v-23.59198h30.20924v23.59198z" fill="#121117"/><path d="M211.61853,137.2718v-11.93984h12.51526v11.93984z" fill="#121117"/><path d="M255.63772,156.83588v-27.90759h11.65214v27.90759z" fill="#121117"/><path d="M266.28288,163.8847v-26.03749h15.68003v26.03749z" fill="#121117"/><path d="M162.70833,148.49238v-18.70096h16.68701v18.70096z" fill="#121117"/></g></g></svg>